<svg width="86" height="21" viewBox="0 0 86 21" fill="none" xmlns="http://www.w3.org/2000/svg">
<g clip-path="url(#clip0)">
<path d="M11.314 20.8462C17.4364 20.8462 22.3995 16.2317 22.3995 10.5394C22.3995 4.8471 17.4364 0.232574 11.314 0.232574C5.19166 0.232574 0.228516 4.8471 0.228516 10.5394C0.228516 16.2317 5.19166 20.8462 11.314 20.8462Z" fill="#051A1E"/>
<path fill-rule="evenodd" clip-rule="evenodd" d="M0 10.5C0 16.2994 5.0557 21 11.2932 21C17.5308 21 22.5865 16.2994 22.5865 10.5C22.5865 4.70058 17.5308 0 11.2932 0C5.0557 0 0 4.70058 0 10.5ZM1.15997 10.5C1.15997 5.2907 5.70134 1.06831 11.2932 1.06831C16.8852 1.06831 21.4265 5.2907 21.4265 10.5C21.4265 15.7093 16.8852 19.9317 11.2932 19.9317C5.70134 19.9317 1.15997 15.7093 1.15997 10.5V10.5Z" fill="#17D8FF"/>
<path fill-rule="evenodd" clip-rule="evenodd" d="M6.4782 7.25015C7.02535 7.25015 7.53967 7.45364 7.93362 7.80975C8.32757 8.16585 8.53549 8.65422 8.53549 9.16295C8.53549 9.67167 8.31663 10.16 7.93362 10.5263C7.55062 10.8926 7.02535 11.0859 6.4782 11.0859C5.93104 11.0859 5.41672 10.8824 5.02277 10.5263C4.63976 10.16 4.4209 9.68184 4.4209 9.17312C4.4209 8.6644 4.63976 8.17603 5.02277 7.81992C5.41672 7.44347 5.93104 7.25015 6.4782 7.25015V7.25015ZM11.2822 2.75306C11.8294 2.75306 12.3437 2.95655 12.7376 3.31265C13.5365 4.06556 13.5365 5.27632 12.7376 6.02922C12.3546 6.3955 11.8294 6.58882 11.2822 6.58882C10.735 6.58882 10.2207 6.38533 9.82678 6.02922C9.02793 5.27632 9.02793 4.06556 9.82678 3.31265C10.2098 2.95655 10.735 2.75306 11.2822 2.75306ZM11.0852 11.5539C11.6324 11.5539 12.1467 11.7574 12.5407 12.1135C12.9237 12.4798 13.1425 12.958 13.1425 13.4769C13.1425 13.9856 12.9346 14.474 12.5407 14.8403C12.1576 15.2066 11.6324 15.3999 11.0852 15.3999C10.5381 15.3999 10.0238 15.1964 9.6298 14.8403C8.83096 14.0874 8.83096 12.8766 9.6298 12.1237C10.0238 11.7574 10.5381 11.5539 11.0852 11.5539V11.5539ZM15.8892 7.43329C16.3379 7.43329 16.7537 7.59608 17.0711 7.89114C17.3884 8.1862 17.5635 8.57283 17.5635 8.98998C17.5635 9.40713 17.3884 9.79376 17.0711 10.0888C16.7537 10.3839 16.3379 10.5467 15.8892 10.5467C15.4406 10.5467 15.0247 10.3839 14.7074 10.0888C14.39 9.79376 14.2149 9.40713 14.2149 8.98998C14.2149 8.57283 14.39 8.1862 14.7074 7.89114C15.0247 7.59608 15.4406 7.43329 15.8892 7.43329ZM6.4782 6.88388C5.85444 6.88388 5.23069 7.10771 4.74919 7.55539C3.79714 8.45074 3.79714 9.8955 4.74919 10.7909C5.23069 11.2385 5.85444 11.4624 6.4782 11.4624C7.10195 11.4624 7.72571 11.2385 8.2072 10.7909C9.11548 9.94638 9.15925 8.59318 8.33852 7.69783L9.72829 6.41585C10.1332 6.74143 10.6256 6.92457 11.129 6.9551V11.1877H11.1181C10.4943 11.1877 9.83772 11.4115 9.35622 11.8592C8.40418 12.7545 8.40418 14.1993 9.35622 15.0946C9.83772 15.5423 10.4615 15.7661 11.0852 15.7661C11.709 15.7661 12.3327 15.5423 12.8142 15.0946C13.6568 14.301 13.7553 13.0801 13.0988 12.1847L14.4995 10.8722C14.9153 11.147 15.3968 11.2792 15.8892 11.2792C16.513 11.2792 17.1367 11.0554 17.6182 10.6077C18.5703 9.71236 18.5703 8.2676 17.6182 7.37225C17.1367 6.92457 16.513 6.70074 15.8892 6.70074C15.2655 6.70074 14.6417 6.92457 14.1602 7.37225C13.2082 8.2676 13.2082 9.71236 14.1602 10.6077C14.1712 10.6179 14.1931 10.6382 14.204 10.6484L12.858 11.91L12.7705 11.8693C12.3984 11.5234 11.9388 11.3097 11.4463 11.2284V6.9551C11.9935 6.90422 12.5297 6.69056 12.9565 6.29376C13.9085 5.39841 13.9523 3.95364 13.0003 3.05829C12.5188 2.61062 11.895 2.38678 11.2713 2.38678C10.6475 2.38678 10.0237 2.61062 9.54225 3.05829C8.63398 3.90277 8.59021 5.25597 9.41094 6.15132L8.06494 7.42312C7.60533 7.05684 7.04724 6.88388 6.4782 6.88388V6.88388ZM16.9726 8.94928C16.9726 9.48853 16.6005 9.96672 15.9221 9.9769C15.2108 9.98707 14.8168 9.5394 14.8168 9.00015C14.8168 8.46091 15.2983 7.96236 15.8783 7.96236C16.4583 7.96236 16.9726 8.41004 16.9726 8.94928Z" fill="#CBF0FE"/>
<path d="M31.8257 13.231C31.7009 12.9197 31.5827 12.6206 31.4711 12.3337C31.3595 12.0467 31.2512 11.7659 31.1461 11.4912H27.8271C27.7155 11.7659 27.6038 12.0467 27.4922 12.3337C27.3806 12.6206 27.2657 12.9197 27.1475 13.231H26.4482C26.7109 12.5717 26.9571 11.9582 27.1869 11.3905C27.4167 10.8166 27.6399 10.2764 27.8566 9.7697C28.0799 9.25691 28.2998 8.76549 28.5165 8.29543C28.7332 7.82537 28.963 7.35531 29.2059 6.88525H29.7968C30.0398 7.35531 30.2696 7.82537 30.4862 8.29543C30.7029 8.76549 30.9196 9.25691 31.1363 9.7697C31.3595 10.2764 31.586 10.8166 31.8158 11.3905C32.0456 11.9582 32.2951 12.5717 32.5643 13.231H31.8257V13.231ZM29.4817 7.5995C29.2322 8.1245 28.9892 8.65866 28.7529 9.20197C28.5231 9.74528 28.2834 10.3313 28.0339 10.9601H30.9393C30.6898 10.3313 30.4468 9.74528 30.2105 9.20197C29.9741 8.65866 29.7312 8.1245 29.4817 7.5995V7.5995Z" fill="black"/>
<path d="M37.5543 13.0845C37.3639 13.1456 37.121 13.2036 36.8255 13.2585C36.5301 13.3134 36.1558 13.3409 35.7028 13.3409C35.3285 13.3409 34.9871 13.286 34.6785 13.1761C34.3765 13.0601 34.1138 12.8953 33.8906 12.6816C33.6739 12.4679 33.5032 12.2085 33.3784 11.9033C33.2603 11.598 33.2012 11.2531 33.2012 10.8685C33.2012 10.5084 33.2504 10.1787 33.3489 9.87957C33.454 9.57434 33.605 9.31184 33.8019 9.09207C33.9989 8.87231 34.2386 8.70138 34.5209 8.57928C34.8098 8.45719 35.1381 8.39614 35.5058 8.39614C35.8406 8.39614 36.1295 8.44193 36.3725 8.5335C36.622 8.61896 36.8025 8.70138 36.9142 8.78074V6.2351L37.5543 6.12521V13.0845V13.0845ZM36.9142 9.35763C36.8551 9.31489 36.7796 9.26911 36.6876 9.22027C36.6023 9.17143 36.5005 9.12565 36.3823 9.08292C36.2641 9.04018 36.1361 9.00661 35.9982 8.98219C35.8603 8.95167 35.7159 8.9364 35.5649 8.9364C35.2497 8.9364 34.9838 8.98829 34.7671 9.09207C34.557 9.19585 34.3863 9.33626 34.255 9.51329C34.1237 9.68422 34.0285 9.88873 33.9694 10.1268C33.9103 10.3588 33.8807 10.606 33.8807 10.8685C33.8807 11.4912 34.0482 11.9704 34.383 12.3062C34.7179 12.6358 35.1611 12.8006 35.7126 12.8006C36.0278 12.8006 36.2806 12.7884 36.471 12.764C36.6679 12.7335 36.8157 12.703 36.9142 12.6724V9.35763V9.35763Z" fill="black"/>
<path d="M43.5812 10.8685C43.5812 11.2409 43.5221 11.5797 43.4039 11.885C43.2923 12.1902 43.1315 12.4496 42.9214 12.6633C42.7178 12.877 42.4749 13.0448 42.1925 13.1669C41.9102 13.2829 41.5983 13.3409 41.2569 13.3409C40.9155 13.3409 40.6036 13.2829 40.3213 13.1669C40.039 13.0448 39.7927 12.877 39.5826 12.6633C39.3791 12.4496 39.2182 12.1902 39.1 11.885C38.9884 11.5797 38.9326 11.2409 38.9326 10.8685C38.9326 10.4962 38.9884 10.1573 39.1 9.85211C39.2182 9.54688 39.3791 9.28743 39.5826 9.07377C39.7927 8.854 40.039 8.68612 40.3213 8.57013C40.6036 8.44804 40.9155 8.38699 41.2569 8.38699C41.5983 8.38699 41.9102 8.44804 42.1925 8.57013C42.4749 8.68612 42.7178 8.854 42.9214 9.07377C43.1315 9.28743 43.2923 9.54688 43.4039 9.85211C43.5221 10.1573 43.5812 10.4962 43.5812 10.8685V10.8685ZM42.9017 10.8685C42.9017 10.2764 42.7539 9.80632 42.4585 9.45836C42.163 9.10429 41.7625 8.92725 41.2569 8.92725C40.7513 8.92725 40.3508 9.10429 40.0554 9.45836C39.7599 9.80632 39.6122 10.2764 39.6122 10.8685C39.6122 11.4607 39.7599 11.9307 40.0554 12.2787C40.3508 12.6267 40.7513 12.8007 41.2569 12.8007C41.7625 12.8007 42.163 12.6267 42.4585 12.2787C42.7539 11.9307 42.9017 11.4607 42.9017 10.8685Z" fill="black"/>
<path d="M45.6109 8.78074C45.7225 8.70138 45.8998 8.61896 46.1427 8.5335C46.3922 8.44193 46.6844 8.39614 47.0193 8.39614C47.3869 8.39614 47.7119 8.45719 47.9943 8.57928C48.2832 8.70138 48.5261 8.87231 48.7231 9.09207C48.9201 9.31184 49.0678 9.57434 49.1663 9.87957C49.2713 10.1787 49.3239 10.5084 49.3239 10.8685C49.3239 11.2531 49.2615 11.598 49.1367 11.9033C49.0186 12.2085 48.8478 12.4679 48.6246 12.6816C48.4079 12.8953 48.1453 13.0601 47.8367 13.1761C47.5347 13.286 47.1965 13.3409 46.8223 13.3409C46.3692 13.3409 45.995 13.3134 45.6995 13.2585C45.4041 13.2036 45.1611 13.1456 44.9707 13.0845V6.2351L45.6109 6.12521V8.78074V8.78074ZM45.6109 12.6724C45.7094 12.703 45.8538 12.7335 46.0442 12.764C46.2412 12.7884 46.4973 12.8006 46.8124 12.8006C47.364 12.8006 47.8072 12.6358 48.142 12.3062C48.4769 11.9704 48.6443 11.4912 48.6443 10.8685C48.6443 10.606 48.6148 10.3588 48.5557 10.1268C48.4966 9.88873 48.4014 9.68422 48.27 9.51329C48.1387 9.33626 47.9647 9.19585 47.7481 9.09207C47.538 8.98829 47.2753 8.9364 46.9602 8.9364C46.8091 8.9364 46.6647 8.95167 46.5268 8.98219C46.3889 9.00661 46.2609 9.04018 46.1427 9.08292C46.0245 9.12565 45.9195 9.17143 45.8275 9.22027C45.7422 9.26911 45.67 9.31489 45.6109 9.35763V12.6724V12.6724Z" fill="black"/>
<path d="M50.3975 10.8594C50.3975 10.4443 50.4598 10.0841 50.5846 9.77885C50.7159 9.46752 50.8833 9.20807 51.0869 9.00051C51.297 8.79295 51.5333 8.64034 51.796 8.54266C52.0652 8.43888 52.3409 8.38699 52.6233 8.38699C53.247 8.38699 53.7427 8.57624 54.1104 8.95473C54.4847 9.33321 54.6718 9.91621 54.6718 10.7037C54.6718 10.7525 54.6685 10.8014 54.662 10.8502C54.662 10.8991 54.6587 10.9448 54.6521 10.9876H51.077C51.0967 11.5675 51.251 12.0132 51.5399 12.3245C51.8288 12.6358 52.2884 12.7915 52.9187 12.7915C53.2667 12.7915 53.5425 12.761 53.746 12.6999C53.9496 12.6389 54.0973 12.587 54.1892 12.5443L54.3074 13.0571C54.2155 13.1059 54.0415 13.1639 53.7854 13.231C53.5359 13.2982 53.2405 13.3318 52.899 13.3318C52.4526 13.3318 52.0717 13.2707 51.7566 13.1486C51.4414 13.0265 51.1821 12.8556 50.9785 12.6358C50.775 12.4161 50.6273 12.1566 50.5353 11.8575C50.4434 11.5523 50.3975 11.2196 50.3975 10.8594V10.8594ZM54.0119 10.4839C53.9988 9.98946 53.8741 9.60487 53.6377 9.33016C53.4013 9.05545 53.0665 8.9181 52.6331 8.9181C52.4033 8.9181 52.1965 8.96083 52.0127 9.0463C51.8354 9.13176 51.6778 9.24775 51.5399 9.39426C51.4086 9.53467 51.3035 9.69949 51.2248 9.88874C51.1525 10.078 51.1099 10.2764 51.0967 10.4839H54.0119V10.4839Z" fill="black"/>
<path d="M62.732 6.88525V7.42552H60.5456V13.231H59.8759V7.42552H57.6895V6.88525H62.732V6.88525Z" fill="black"/>
<path d="M65.0235 12.8007C65.273 12.8007 65.4897 12.7946 65.6736 12.7823C65.864 12.764 66.0248 12.7427 66.1562 12.7182V11.0517C66.0839 11.0212 65.969 10.9906 65.8115 10.9601C65.6539 10.9235 65.4372 10.9052 65.1614 10.9052C65.0039 10.9052 64.8397 10.9174 64.669 10.9418C64.4983 10.9601 64.3407 11.0059 64.1962 11.0791C64.0518 11.1463 63.9336 11.2409 63.8417 11.363C63.7498 11.4851 63.7038 11.6469 63.7038 11.8483C63.7038 12.0254 63.7334 12.1749 63.7924 12.297C63.8581 12.4191 63.9467 12.5168 64.0584 12.59C64.1766 12.6633 64.3144 12.7182 64.472 12.7549C64.6362 12.7854 64.82 12.8007 65.0235 12.8007V12.8007ZM64.9645 8.38699C65.2993 8.38699 65.5816 8.43278 65.8115 8.52435C66.0478 8.60981 66.2382 8.73191 66.3827 8.89063C66.5271 9.04324 66.6322 9.22638 66.6978 9.44005C66.7635 9.65371 66.7963 9.88569 66.7963 10.136V13.1212C66.7307 13.1395 66.6355 13.1608 66.5107 13.1852C66.386 13.2036 66.2415 13.2249 66.0774 13.2493C65.9132 13.2738 65.7294 13.2921 65.5258 13.3043C65.3289 13.3226 65.1253 13.3318 64.9152 13.3318C64.646 13.3318 64.3965 13.3043 64.1667 13.2493C63.9435 13.1944 63.7465 13.1089 63.5758 12.993C63.4116 12.8709 63.2803 12.7182 63.1818 12.5351C63.0899 12.3459 63.0439 12.1169 63.0439 11.8483C63.0439 11.5919 63.0965 11.3722 63.2015 11.189C63.3066 11.0059 63.4543 10.8563 63.6447 10.7403C63.8351 10.6182 64.0616 10.5297 64.3243 10.4748C64.5869 10.4198 64.8725 10.3924 65.1811 10.3924C65.273 10.3924 65.3683 10.3985 65.4667 10.4107C65.5718 10.4168 65.6703 10.429 65.7622 10.4473C65.8607 10.4595 65.9428 10.4748 66.0084 10.4931C66.0806 10.5053 66.1299 10.5175 66.1562 10.5297V10.2367C66.1562 10.0719 66.143 9.91316 66.1168 9.76054C66.0905 9.60182 66.0314 9.46141 65.9395 9.33932C65.8541 9.21112 65.7294 9.11039 65.5652 9.03714C65.4077 8.95778 65.1975 8.9181 64.9349 8.9181C64.5607 8.9181 64.2816 8.94252 64.0978 8.99135C63.9139 9.04019 63.7793 9.07987 63.694 9.11039L63.6053 8.58845C63.7169 8.53961 63.8877 8.49382 64.1175 8.45109C64.3538 8.40836 64.6362 8.38699 64.9645 8.38699V8.38699Z" fill="black"/>
<path d="M70.1719 8.4053C70.382 8.4053 70.5789 8.42057 70.7628 8.45109C70.9532 8.48161 71.0845 8.51214 71.1567 8.54266L71.0287 9.05545C70.9762 9.03103 70.8678 9.00661 70.7037 8.98219C70.5461 8.95167 70.336 8.93641 70.0734 8.93641C69.7976 8.93641 69.5744 8.95472 69.4037 8.99135C69.2395 9.02798 69.1312 9.0585 69.0786 9.08292V13.231H68.4385V8.71664C68.6026 8.64949 68.8291 8.58234 69.118 8.51519C69.4069 8.44193 69.7582 8.4053 70.1719 8.4053V8.4053Z" fill="black"/>
<path d="M75.431 12.6816C75.3916 12.7121 75.3325 12.7488 75.2537 12.7915C75.1749 12.8281 75.0764 12.8678 74.9582 12.9105C74.8466 12.9533 74.7153 12.9899 74.5643 13.0204C74.4198 13.0448 74.2557 13.057 74.0719 13.057C73.7764 13.057 73.4908 13.0143 73.215 12.9289C72.9393 12.8434 72.6963 12.7091 72.4862 12.5259C72.2827 12.3428 72.1185 12.1078 71.9938 11.8209C71.869 11.5278 71.8066 11.1738 71.8066 10.7586C71.8066 10.4229 71.8625 10.1116 71.9741 9.82464C72.0857 9.53772 72.2433 9.29048 72.4468 9.08292C72.6569 8.86926 72.9097 8.70443 73.2052 8.58844C73.5072 8.46635 73.8453 8.4053 74.2196 8.4053C74.6923 8.4053 75.0699 8.43583 75.3522 8.49687C75.6411 8.55182 75.8775 8.60676 76.0613 8.6617V12.9838C76.0613 13.6919 75.8643 14.1956 75.4704 14.4947C75.0764 14.7999 74.4822 14.9525 73.6878 14.9525C73.3595 14.9525 73.0607 14.9281 72.7915 14.8793C72.5289 14.8366 72.3024 14.7847 72.112 14.7236L72.24 14.1834C72.3976 14.2505 72.611 14.3085 72.8802 14.3573C73.1559 14.4062 73.4317 14.4306 73.7075 14.4306C74.3115 14.4306 74.7481 14.3207 75.0173 14.1009C75.2931 13.8873 75.431 13.5179 75.431 12.9929V12.6816V12.6816ZM75.4211 9.07376C75.3095 9.04324 75.1651 9.01577 74.9878 8.99135C74.8105 8.96083 74.5577 8.94557 74.2294 8.94557C73.9537 8.94557 73.7075 8.99135 73.4908 9.08292C73.2807 9.16839 73.1001 9.29353 72.9491 9.45836C72.7981 9.61708 72.6832 9.80937 72.6044 10.0352C72.5256 10.255 72.4862 10.4992 72.4862 10.7678C72.4862 11.0791 72.5322 11.3477 72.6241 11.5736C72.716 11.7934 72.8342 11.9735 72.9786 12.1139C73.1297 12.2543 73.3004 12.3581 73.4908 12.4252C73.6812 12.4863 73.8749 12.5168 74.0719 12.5168C74.3608 12.5168 74.6234 12.4771 74.8598 12.3977C75.1027 12.3184 75.2898 12.2268 75.4211 12.123V9.07376V9.07376Z" fill="black"/>
<path d="M77.4434 10.8594C77.4434 10.4443 77.5057 10.0841 77.6305 9.77885C77.7618 9.46752 77.9292 9.20807 78.1328 9.00051C78.3429 8.79295 78.5792 8.64034 78.8419 8.54266C79.1111 8.43888 79.3868 8.38699 79.6692 8.38699C80.2929 8.38699 80.7887 8.57624 81.1563 8.95473C81.5306 9.33321 81.7177 9.91621 81.7177 10.7037C81.7177 10.7525 81.7144 10.8014 81.7079 10.8502C81.7079 10.8991 81.7046 10.9448 81.698 10.9876H78.1229C78.1426 11.5675 78.2969 12.0132 78.5858 12.3245C78.8747 12.6358 79.3343 12.7915 79.9646 12.7915C80.3126 12.7915 80.5884 12.761 80.7919 12.6999C80.9955 12.6389 81.1432 12.587 81.2351 12.5443L81.3533 13.0571C81.2614 13.1059 81.0874 13.1639 80.8313 13.231C80.5818 13.2982 80.2864 13.3318 79.9449 13.3318C79.4985 13.3318 79.1176 13.2707 78.8025 13.1486C78.4873 13.0265 78.228 12.8556 78.0244 12.6358C77.8209 12.4161 77.6732 12.1566 77.5812 11.8575C77.4893 11.5523 77.4434 11.2196 77.4434 10.8594V10.8594ZM81.0578 10.4839C81.0447 9.98946 80.92 9.60487 80.6836 9.33016C80.4472 9.05545 80.1124 8.9181 79.679 8.9181C79.4492 8.9181 79.2424 8.96083 79.0586 9.0463C78.8813 9.13176 78.7237 9.24775 78.5858 9.39426C78.4545 9.53467 78.3494 9.69949 78.2707 9.88874C78.1984 10.078 78.1557 10.2764 78.1426 10.4839H81.0578V10.4839Z" fill="black"/>
<path d="M83.7544 8.49686H85.7833V9.00049H83.7544V11.5187C83.7544 11.7873 83.7774 12.007 83.8234 12.178C83.8759 12.3428 83.9481 12.471 84.04 12.5626C84.132 12.6541 84.2436 12.7152 84.3749 12.7457C84.5062 12.7762 84.6507 12.7915 84.8083 12.7915C85.0775 12.7915 85.2941 12.764 85.4583 12.7091C85.6224 12.648 85.7505 12.5931 85.8424 12.5442L86 13.0387C85.908 13.0937 85.7472 13.1578 85.5174 13.231C85.2876 13.2982 85.0381 13.3317 84.7689 13.3317C84.4537 13.3317 84.1878 13.2951 83.9711 13.2219C83.761 13.1425 83.5903 13.0265 83.459 12.8739C83.3342 12.7152 83.2456 12.5198 83.193 12.2878C83.1405 12.0559 83.1143 11.7812 83.1143 11.4637V7.105L83.7544 6.99512V8.49686V8.49686Z" fill="black"/>
</g>
<defs>
<clipPath id="clip0">
<rect width="86" height="21" fill="white"/>
</clipPath>
</defs>
</svg>
