<svg width="84" height="30" viewBox="0 0 84 30" fill="none" xmlns="http://www.w3.org/2000/svg">
<path fill-rule="evenodd" clip-rule="evenodd" d="M38.1126 1.48292H33.8063V14.5812C33.8063 17.0932 33.0886 19.4861 29.7992 19.4861C26.4496 19.4861 25.5527 17.0932 25.5527 14.5812V1.48292H21.3061V14.8207C21.3061 19.0668 23.8779 22.5355 29.7992 22.5355C35.6604 22.5355 38.1126 19.0663 38.1126 14.8207V1.48292V1.48292ZM0.970703 21.9976H5.21726V12.488H13.6506V21.9976H17.8369V1.48292H13.6506V9.37793H5.21726V1.48292H0.970703V21.9976ZM59.5242 6.74641C57.9694 2.73938 54.9191 0.58645 50.7323 0.58645C44.5121 0.58645 40.385 5.13183 40.385 11.5911C40.385 18.5892 44.033 22.536 50.433 22.536C51.9285 22.536 54.7995 21.8183 56.1746 20.2635V22.0583H59.704V10.8137H50.8518V13.864H55.8165C55.8165 16.9139 53.6033 19.7256 50.7323 19.7256C46.4259 19.7256 44.8711 15.4786 44.8711 11.5916C44.8711 7.94358 46.6057 3.45749 50.7323 3.45749C54.1412 3.45749 55.4569 6.56759 55.8758 8.2424L59.5242 6.74641V6.74641ZM2.52552 29.534V27.5002H4.43986V29.534H5.45632V24.9289H4.43986V26.7825H2.52552V24.9289H1.56882V29.534H2.52552ZM14.1885 24.9289V27.4404C14.1885 28.2183 14.1885 28.8757 13.1716 28.8757C12.2144 28.8757 12.2144 28.2183 12.2144 27.4404V24.9289H11.1979V27.7995C11.1979 28.9957 12.0949 29.5943 13.1716 29.5943C14.308 29.5943 15.205 28.9962 15.205 27.7995V24.9289H14.1885V24.9289ZM24.0571 27.8597V28.7562C23.8181 28.8164 23.579 28.8757 23.1602 28.8757C22.203 28.8757 21.8445 28.2785 21.8445 27.2616C21.8445 26.1844 22.2035 25.5863 23.1004 25.5863C23.6388 25.5863 23.9978 25.9458 23.9978 26.3642H25.0143C25.0143 25.4668 24.2369 24.8687 23.0407 24.8687C22.084 24.8687 20.7678 25.4065 20.7678 27.2616C20.7678 29.0554 22.0237 29.5943 23.1004 29.5943C24.0571 29.5943 24.6557 29.4145 25.0143 29.2347V27.0818H23.1602V27.8597H24.0571V27.8597ZM70.111 26.2446C70.111 25.287 69.2136 24.8094 68.3764 24.8094C67.5383 24.8094 66.5816 25.287 66.5816 26.2446C66.5816 26.9021 67.0602 27.2616 67.718 27.4404C67.8978 27.5006 68.2569 27.5609 68.4357 27.6202C69.0338 27.7999 69.2729 27.9797 69.2729 28.3378C69.2729 28.8757 68.7952 28.9961 68.4959 28.9961C67.7783 28.9961 67.479 28.5778 67.479 28.0987H66.5223C66.5223 29.0554 67.2399 29.6536 68.4959 29.6536C69.4526 29.6536 70.35 29.1157 70.35 28.2183C70.35 27.5006 69.8121 27.0818 69.0945 26.9025C68.8545 26.8432 68.6159 26.783 68.3769 26.6635C67.838 26.5439 67.599 26.3642 67.599 26.0051C67.599 25.7068 67.838 25.407 68.3769 25.407C68.9147 25.407 69.1538 25.7665 69.1538 26.2451H70.111V26.2446V26.2446ZM79.9198 26.2446C79.9198 25.287 78.9622 24.8094 78.125 24.8094C77.2879 24.8094 76.3312 25.287 76.3312 26.2446C76.3312 26.9021 76.8088 27.2616 77.4676 27.4404C77.6464 27.5006 78.0055 27.5609 78.1853 27.6202C78.8427 27.7999 79.0224 27.9797 79.0224 28.3378C79.0224 28.8757 78.5439 28.9961 78.2446 28.9961C77.5269 28.9961 77.2276 28.5778 77.2276 28.0987H76.2709C76.2709 29.0554 76.9886 29.6536 78.2446 29.6536C79.2022 29.6536 80.0987 29.1157 80.0987 28.2183C80.0987 27.5006 79.5608 27.0818 78.8431 26.9025C78.6041 26.8432 78.3646 26.783 78.1255 26.6635C77.5876 26.5439 77.3476 26.3642 77.3476 26.0051C77.3476 25.7068 77.5876 25.407 78.1255 25.407C78.6634 25.407 78.9034 25.7665 78.9034 26.2451H79.9198V26.2446ZM32.9093 29.6536C34.4641 29.6536 35.1818 28.5773 35.1818 27.2616C35.1818 25.8856 34.4641 24.8094 32.9093 24.8094C31.354 24.8094 30.6364 25.8856 30.6364 27.2616C30.6364 28.5773 31.354 29.6536 32.9093 29.6536ZM32.9093 25.527C33.9258 25.527 34.1055 26.4244 34.1055 27.2616C34.1055 28.0385 33.9263 28.9359 32.9093 28.9359C31.8924 28.9359 31.7131 28.0385 31.7131 27.2616C31.7126 26.4244 31.8924 25.527 32.9093 25.527ZM48.5793 29.534C49.536 29.534 50.3732 29.1157 50.3732 28.2785C50.3732 27.5609 49.8353 27.1411 49.297 27.1411C49.6565 27.0818 50.1342 26.6635 50.1342 26.1251C50.1342 25.287 49.536 24.9289 48.5793 24.9289H46.5459V29.534H48.5793ZM47.5624 28.8164V27.5006H48.4598C48.8782 27.5006 49.2367 27.6202 49.2367 28.159C49.2367 28.6969 48.8782 28.8164 48.4598 28.8164H47.5624ZM47.5624 26.8428V25.6465H48.4598C48.8782 25.6465 49.1172 25.8856 49.1172 26.2446C49.1172 26.6032 48.7586 26.8428 48.3996 26.8428H47.5624V26.8428ZM58.3882 29.6536C60.0033 29.6536 60.7209 28.6366 60.7209 27.2013C60.7209 25.8263 60.0033 24.8094 58.3882 24.8094C56.8334 24.8094 56.1158 25.8263 56.1158 27.2013C56.1153 28.6366 56.8329 29.6536 58.3882 29.6536ZM58.3882 25.527C59.4052 25.527 59.6437 26.4244 59.6437 27.2013C59.6437 28.0385 59.4047 28.9359 58.3882 28.9359C57.3718 28.9359 57.192 28.0385 57.192 27.2013C57.1915 26.4244 57.3713 25.527 58.3882 25.527ZM72.4437 0.346924C66.103 0.346924 61.9162 5.13183 61.9162 11.5911C61.9162 18.1101 66.103 22.8353 72.4437 22.8353C78.8427 22.8353 83.0295 18.1106 83.0295 11.5911C83.0295 5.13183 78.8427 0.346924 72.4437 0.346924ZM72.4437 3.15773C76.6897 3.15773 78.4846 7.88288 78.4846 11.5911C78.4846 15.2998 76.6897 19.9642 72.4437 19.9642C68.2569 19.9642 66.462 15.2998 66.462 11.5911C66.4625 7.88288 68.2569 3.15773 72.4437 3.15773Z" fill="#0C0E0F"/>
</svg>
