<svg xmlns="http://www.w3.org/2000/svg" width="313.34" height="69.01" viewBox="0 0 313.34 69.01">
  <defs>
    <style>
      .cls-1, .cls-2, .cls-3 {
        fill: #0060a9;
      }

      .cls-2, .cls-3 {
        font-size: 15px;
        font-family: sans-serif;
        font-style: italic;
      }

      .cls-2 {
        letter-spacing: -0.01em;
      }

      .cls-3 {
        letter-spacing: -0.01em;
      }

      .cls-4 {
        fill: #1880b8;
      }

      .cls-5 {
        fill: #fff;
      }

      .cls-6 {
        fill: #72ba44;
      }
    </style>
  </defs>
  <g id="Layer_2" data-name="Layer 2">
    <g id="Layer_1-2" data-name="Layer 1">
      <path class="cls-1" d="M212.66,51.41A25.71,25.71,0,0,1,214,48.29c.31-.51.35-.56-.2-.28-1.56.79-3.09,1.22-3.93,2.07C207.66,52.34,211.23,54.73,212.66,51.41Zm-1.59-1a3.18,3.18,0,0,1,1-.4c-.23,1-.79,1.79-1.32,1.68C210.37,51.61,210.25,50.91,211.07,50.4Zm32.28,6.54a11.12,11.12,0,0,1-1.72,2.3c-1.27,1.15-2.35.75-2.76-.4a13.82,13.82,0,0,1-.51-2.48c-.26-1.78-1.78-2.07-2.47-.87-.41.72-1.16,2.56-1.61,3.49-.06.14-.16.12-.13-.53s0-1.14,0-1.76c.06-2.54-1.38-2.42-2-1.91a9,9,0,0,0-1.44,2.41,11.55,11.55,0,0,1-1,1.63c-.74.92-2.15.7-1.67-1.4a9.36,9.36,0,0,1,.38-1.38c.21-.61-.07-.93-.46-1s-.5,0-.65-.4a1.68,1.68,0,0,0-2.25-.81,4.69,4.69,0,0,0-2.59,2.59h0a5,5,0,0,0-.54,2c0,.62-.23.44-.58.34a2.63,2.63,0,0,0-1.11-.1,3.72,3.72,0,0,0-.8.19,14,14,0,0,1,.54-3.48c.21-.75-.13-1-.62-1s-.61-.36-.77-.65c-.77-1.46-3.92-.61-5,2.57a7.23,7.23,0,0,0-.39,1.76c-1,2.53-3.24,1.8-2.85-1.38.09-.72.27-1.44.38-2,0,0-1.35-.8-1.79-.12a19.76,19.76,0,0,1-.47,2.48c-.74,2.75-2.48,3.19-3.64,1.67a7.6,7.6,0,0,0,.45-1A17.33,17.33,0,0,0,206.43,50c-.39-3.08-2.38-3.14-3.28-1.67-1.3,2.09-1.47,6.79-.56,9.31.13.36.27.68.41,1-1.4,1.68-3.27,1.36-4.48-.55a12.47,12.47,0,0,0,1.09-2.9c.62-2.46.74-5.55.14-7.25-.81-2.27-2.63-2.24-3.44-.14a16.52,16.52,0,0,0,0,9.3c.13.37.26.71.4,1-1.69,2.31-4.15,2-3.89-1.56.05-.56.14-1.12.19-1.62a1.81,1.81,0,0,0-1.74-.17A19.91,19.91,0,0,1,190,58.84c-.49.9-1.49.75-1.32-2.2a10.44,10.44,0,0,1,.45-2.45s-1.37-.45-1.8-.12c-1.44,3.1-4.6,5.82-8.06,6-5.37.51-8.94-4.88-6.4-9.08,2.05-3.38,7-3.29,8.82-.64.34.51-.13.83-.45,1.35a2.73,2.73,0,0,0-.12,2.94c.87,1.27,3,.69,3-1.56.22-6.56-7.51-8.33-11.45-5a7.81,7.81,0,0,0,4.69,13.7,10.74,10.74,0,0,0,9.52-4.18c-.09,3.6,2.08,4.41,3.44,3.32a4.28,4.28,0,0,0,1.21-1.76c.82,2.46,3.74,2.95,6,.31a4,4,0,0,0,3.3,1.78A4.34,4.34,0,0,0,203.91,60a3,3,0,0,0,5.17-.66c.84,2.21,3.28,2.56,4.51.72.62,1.07,1.92,1.23,3.16.21a11.25,11.25,0,0,0,1.17-1.23,8,8,0,0,0,0,.82,7.87,7.87,0,0,0-2.08,7.54c.69,2.65,3.23,1.9,3.75-1.62a24.52,24.52,0,0,0-.09-5.22,2.15,2.15,0,0,1,.89-.27c1.51-.09,2,1,3.35,1.07h0a3.35,3.35,0,0,0,2.83-1.84,2.12,2.12,0,0,0,3.46,1.17,8.18,8.18,0,0,0,2.25-3.06l.18-.36a8.11,8.11,0,0,0,.5,3.55c.56,1,1.76,1,2.85-1.31.36-.78.73-1.67,1-2.35a13.52,13.52,0,0,0,.32,1.72c.81,3,3.06,3.07,4.66,2a4.86,4.86,0,0,0,2-2.5C244.06,57.59,243.77,57,243.35,56.94ZM197.9,55.46a7.36,7.36,0,0,1-.21.71c-.06-.23-.12-.47-.17-.72A13.72,13.72,0,0,1,197.7,49c.3-.85.74-.41.8,1.26A19.32,19.32,0,0,1,197.9,55.46Zm6.11,1.4a7.69,7.69,0,0,1-.2-1.06,15.93,15.93,0,0,1,.38-6c.22-.47.71-.42.67,1.51a23.07,23.07,0,0,1-.53,4.62C204.23,56.24,204.12,56.56,204,56.86Zm13.51-.15c-1.23,2.55-2.52,2.74-2.53,1.52a3.91,3.91,0,0,1,2.08-3.58C218.05,54.31,218.32,55.06,217.52,56.71Zm.51,8.87c-.23,1.55-.63,1.53-.74,1.09a6.87,6.87,0,0,1,.8-4.58A17.59,17.59,0,0,1,218,65.58ZM225,59c-.4.38-.76.5-1,.42s-.3-.52-.22-1.06a4.4,4.4,0,0,1,1.62-2.86c.43-.3,1.07-.45,1.17,0A5.32,5.32,0,0,1,225,59Z"/>
      <text class="cls-2" transform="translate(248.32 61.31)">company</text>
      <text class="cls-3" transform="translate(153.6 61.31)">A</text>
      <g>
        <path class="cls-4" d="M270.3,2.11h0Zm26.05,34.58h0v0"/>
        <path class="cls-5" d="M24.26,25.13h0Z"/>
        <path class="cls-6" d="M24.32,25.13h-.06c-.31-9.47-6.69-14.21-6.69-19,0-3.66,2.56-6.1,6.48-6.13h.14c4,0,6.47,2.47,6.47,6.13,0,5-6.28,9.56-6.34,19"/>
        <path class="cls-5" d="M42.65,13.11h0Zm6.13,7.24v0m-6.44,5.88h0"/>
        <g>
          <path class="cls-4" d="M42.4,26.23h-.11a28.15,28.15,0,0,1-5.43-.87,30.84,30.84,0,0,0-6.72-.87,20.59,20.59,0,0,0-5.73.81l0-.05c9-3,11.67-10.47,16.26-11.84a7,7,0,0,1,1.93-.3h.07c2.66,0,4.84,1.76,5.75,4.81a8.72,8.72,0,0,1,.38,2.38v.05A5.67,5.67,0,0,1,44.4,26a7.37,7.37,0,0,1-2,.28"/>
          <path class="cls-4" d="M6.39,26.34a6.69,6.69,0,0,1-2-.28C.85,25-.8,22,.37,18c.92-3.06,3.11-4.81,5.79-4.81a6.87,6.87,0,0,1,2,.3c4.59,1.37,7.06,8.72,16.05,11.73l0,.07a19.8,19.8,0,0,0-5.61-.81,29.33,29.33,0,0,0-6.71.91,26.25,26.25,0,0,1-5.44.91"/>
        </g>
        <polygon class="cls-5" points="13.68 47.38 13.71 47.38 13.75 47.38 13.68 47.38"/>
        <g>
          <path class="cls-4" d="M13.75,47.38h-.07a7.18,7.18,0,0,1-4-1.43c-3.24-2.27-4-5.76-1.85-8.78C10.52,33.25,18.49,33,24.17,25.4l.06.05c-5.36,7.77-2.85,15.11-5.73,19.22a5.79,5.79,0,0,1-4.75,2.71"/>
          <path class="cls-5" d="M42,40.57v0ZM34.89,47.2h0"/>
          <path class="cls-4" d="M34.92,47.2h-.07a5.79,5.79,0,0,1-4.75-2.71c-2.88-4.11-.36-11.3-5.72-19.07l0,0C30.09,33,38.08,33.07,40.82,37A6.21,6.21,0,0,1,42,40.54v0a6.46,6.46,0,0,1-3,5.2,7.23,7.23,0,0,1-4.06,1.43"/>
          <path class="cls-4" d="M84.14,15.42c-7.5,0-10.43.3-10.43,9.3a20.24,20.24,0,0,0,.41,5,5.17,5.17,0,0,0,2.72,3.44,20.06,20.06,0,0,0,6.37.72h1.91c7-.1,12.38.31,12.38-8.27,0-7-.78-9.81-8.43-10.12-1.64-.05-3.29-.05-4.93-.05m17,31.69H97.5V32.83c-1.29,2.93-3.75,3.86-6.78,4.11-1.8.11-3.65.11-5.5.11-9.68,0-15.33-.62-15.36-12v-.24c0-5.36.82-11.07,7.19-12a43.17,43.17,0,0,1,7.7-.62h3c3.9,0,8,0,9.76,4.11v-3.8h3.59V47.11"/>
          <path class="cls-4" d="M140,12.54h0Zm-29,15v-15h0v15m14.33,9.47h0"/>
          <path class="cls-4" d="M125.54,37.05h-.37c-7,0-14.07-.61-14.11-9.47v-15h3.59v13.2c0,7.61,3.39,8.12,10.12,8.12,6.32,0,11.66-.36,11.66-8.12V12.54H140V36.68h-3.6V32c-1.77,4.57-6.61,5-10.89,5"/>
          <path class="cls-4" d="M163.51,15.36c-2.93,0-6.94.11-8.94,1.8-1.44,1.24-1.6,3.24-1.7,5h23.38c-.05-1.75-.16-3.65-1.59-4.93-1.8-1.7-5.55-1.86-8.33-1.86h-2.82m2.94,21.69h-.93c-9.64,0-16.35-.3-16.35-12.39,0-10.12,3.45-12.53,13.21-12.53.87,0,1.69,0,2.46,0,9.51.41,15.16.46,15.16,11.82,0,.41-.05.82-.05,1.23H152.77c.1,3.95.57,7.24,5.09,8.17a34.32,34.32,0,0,0,6.88.46h1.95c2.42,0,5.29-.1,7.09-.87a3.83,3.83,0,0,0,2.37-3.55H180c0,7.2-7.81,7.6-13.5,7.61"/>
          <polygon class="cls-4" points="205.02 12.18 203.9 12.18 204.19 12.18 204.66 12.18 205.02 12.18"/>
          <path class="cls-4" d="M218.17,36.69h-3.6V22.51c0-6.63-4.32-7.15-9.92-7.15-5.75,0-11.81.16-11.81,7.71V36.69h-3.6V12.54h3.6v5c1.71-5.08,6.47-5.33,11.06-5.34H205c3.56,0,7.64.13,10.53,2.41,2.46,2,2.62,4.68,2.62,7.56V36.69"/>
          <path class="cls-4" d="M227.41,25v0m30.41,3.09v0h0v0"/>
          <path class="cls-4" d="M242.52,37c-9.3,0-15.05-1.32-15.11-12v-.55c0-2.47.12-5.74,1.39-7.79,2.46-4,7.34-4.52,11.61-4.52.77,0,1.49,0,2.16,0,6.83.15,14.89-.41,14.89,8.78h-3.74c-.06-1.95-.52-3.59-2.37-4.57s-5.8-1-8.17-1h-.61c-2.37,0-5.81,0-8,.87a4.74,4.74,0,0,0-2.72,3,18.89,18.89,0,0,0-.57,5.65c0,3.95.31,7.71,5.09,8.42a43.86,43.86,0,0,0,7.4.52,27.48,27.48,0,0,0,6.21-.52c2.88-.66,4-2.41,4.12-5.24h3.74v0c-.16,7.38-4.78,8.66-11.3,8.86-1.33.05-2.67.05-4,.05"/>
          <path class="cls-4" d="M296.35,36.69h-3.59V21.63c0-2.46-.47-4.42-3-5.39a20.3,20.3,0,0,0-7.09-.88c-5.24,0-12.39,0-12.39,7.15V36.69h-3.59V2.11h3.59V17.37c1.85-4.88,7.25-5.19,11.77-5.19,7.36,0,14.21.1,14.28,9.31v15.2"/>
          <path class="cls-4" d="M298.79,9.11a2.46,2.46,0,0,0-2.49,2.52,2.49,2.49,0,1,0,5,0,2.46,2.46,0,0,0-2.48-2.52m0,5.46a2.91,2.91,0,0,1-3-2.9v-.08a2.9,2.9,0,0,1,2.92-2.9h.05a2.94,2.94,0,0,1,0,5.88"/>
          <path class="cls-4" d="M298.14,10.29v1.17h.55c.51,0,1,0,1-.59s-.4-.58-.81-.58h-.76m2.15,3h-.49l-1-1.51h-.7v1.51h-.42V9.93H299c.77,0,1.11.33,1.11.94a.92.92,0,0,1-.86,1l1,1.51"/>
        </g>
      </g>
    </g>
  </g>
</svg>
