<svg width="112" height="22" viewBox="0 0 112 22" fill="none" xmlns="http://www.w3.org/2000/svg">
<path d="M23.0508 16.5487L26.0282 4.22479H34.1128L33.5409 6.52214H28.2564L27.6451 9.15046H32.3184L31.7466 11.4478H27.0733L25.8311 16.5487H23.0508Z" fill="black"/>
<path d="M42.2167 7.20355L40.935 12.5186C40.7576 13.2 40.7181 13.8814 40.797 14.5628C40.8759 15.2443 41.0139 15.8478 41.2111 16.3929L38.8055 16.7239C38.6674 16.4708 38.5491 16.1788 38.4308 15.8478C38.0956 16.1009 37.7209 16.3345 37.2871 16.5097C36.8731 16.685 36.3998 16.7823 35.8871 16.7823C35.1773 16.7823 34.6055 16.646 34.1717 16.3929C33.7379 16.1398 33.4026 15.8089 33.1857 15.3805C32.9688 14.9522 32.8505 14.485 32.8308 13.9398C32.8111 13.3947 32.8702 12.8301 33.028 12.2655L34.2505 7.20355H36.9322L35.7294 12.2266C35.6702 12.4797 35.6111 12.7522 35.5716 13.0248C35.5322 13.2974 35.5322 13.5505 35.5716 13.7841C35.6111 14.0177 35.7097 14.2124 35.8477 14.3487C36.0055 14.5044 36.2421 14.5628 36.5576 14.5628C36.8336 14.5628 37.09 14.5044 37.3266 14.4071C37.5632 14.3097 37.8195 14.1345 38.0759 13.8814C38.0956 13.5894 38.135 13.2779 38.1942 12.9469C38.2533 12.6159 38.3125 12.3239 38.3716 12.0513L39.535 7.20355H42.2167V7.20355Z" fill="black"/>
<path d="M44.2091 7.63186C44.4062 7.57345 44.6429 7.49557 44.8795 7.4177C45.1161 7.33982 45.4119 7.26195 45.7076 7.20354C46.0231 7.14513 46.3583 7.08672 46.733 7.04779C47.1076 7.00885 47.5414 6.98938 48.0147 6.98938C49.4344 6.98938 50.4006 7.39823 50.933 8.19646C51.4654 8.99469 51.5443 10.1044 51.209 11.5062L49.9865 16.5681H47.3048L48.4879 11.623C48.5668 11.3115 48.6259 11.0195 48.6654 10.7274C48.7048 10.4354 48.7048 10.1823 48.6654 9.96814C48.6259 9.75398 48.5076 9.57876 48.3302 9.44248C48.1527 9.30619 47.8964 9.22832 47.5217 9.22832C47.1668 9.22832 46.8119 9.26726 46.4569 9.32566L44.7217 16.5487H42.04L44.2091 7.63186Z" fill="black"/>
<path d="M53.752 7.63186C53.9492 7.57345 54.1858 7.49557 54.4224 7.4177C54.6591 7.33982 54.9548 7.26195 55.2506 7.20354C55.5661 7.14513 55.9013 7.08672 56.276 7.04779C56.6506 7.00885 57.0844 6.98938 57.5576 6.98938C58.9774 6.98938 59.9436 7.39823 60.476 8.19646C61.0084 8.99469 61.0872 10.1044 60.752 11.5062L59.5492 16.5487H56.8675L58.0506 11.6035C58.1295 11.292 58.1886 11 58.2281 10.708C58.2675 10.4159 58.2675 10.1628 58.2281 9.94867C58.1886 9.73451 58.0703 9.55929 57.8929 9.42301C57.7154 9.28673 57.4591 9.20885 57.0844 9.20885C56.7295 9.20885 56.3746 9.24779 56.0196 9.30619L54.2647 16.5487H51.583L53.752 7.63186Z" fill="black"/>
<path d="M61.501 12.8885C61.501 12.1292 61.639 11.3894 61.9151 10.6885C62.1911 9.96814 62.5658 9.34513 63.0587 8.8C63.5517 8.25486 64.1432 7.80708 64.8531 7.45663C65.5629 7.12566 66.332 6.95044 67.1798 6.95044C67.5939 6.95044 67.9883 7.00885 68.3432 7.12566C68.6981 7.24247 69.0136 7.4177 69.2897 7.65132C69.5658 7.88495 69.7629 8.15752 69.9207 8.46902C70.0784 8.8 70.1376 9.16991 70.1376 9.57876C70.1376 10.2407 69.9798 10.8053 69.6841 11.2726C69.3883 11.7398 68.9742 12.1097 68.4221 12.4018C67.8897 12.6938 67.2587 12.908 66.5291 13.0248C65.7996 13.1611 64.9911 13.2195 64.1235 13.2195C64.2024 13.7257 64.3996 14.0761 64.6756 14.2708C64.9517 14.485 65.4052 14.5823 66.0165 14.5823C66.3911 14.5823 66.7855 14.5434 67.1798 14.485C67.5742 14.4265 67.9489 14.3292 68.3038 14.1929L68.501 16.2761C68.1658 16.4124 67.732 16.5292 67.2193 16.6265C66.6869 16.7239 66.1348 16.7823 65.5235 16.7823C64.7742 16.7823 64.1432 16.685 63.6503 16.4708C63.1376 16.2566 62.7235 15.9841 62.408 15.6336C62.0925 15.2832 61.8559 14.8549 61.7179 14.3876C61.5799 13.9204 61.501 13.4142 61.501 12.8885ZM66.746 9.0531C66.1348 9.0531 65.6024 9.26725 65.1291 9.69557C64.6756 10.1239 64.3601 10.708 64.2221 11.4088C64.9714 11.3894 65.5629 11.331 66.0165 11.2142C66.47 11.1168 66.8249 11 67.0813 10.8442C67.3376 10.708 67.4953 10.5522 67.5939 10.377C67.6728 10.2018 67.7122 10.046 67.7122 9.87079C67.732 9.32566 67.3967 9.0531 66.746 9.0531Z" fill="black"/>
<path d="M73.6677 16.7239C72.8199 16.7239 72.1494 16.6071 71.6565 16.3929C71.1635 16.1788 70.8283 15.8673 70.6114 15.4974C70.3945 15.1274 70.2959 14.6797 70.2959 14.1929C70.2959 13.7062 70.3748 13.1805 70.4931 12.6159L72.7804 3.17347L75.5804 2.74515L73.0762 12.9859C73.0368 13.2 72.9973 13.3947 72.9973 13.5699C72.9973 13.7451 73.017 13.9009 73.0959 14.0372C73.1748 14.1735 73.2931 14.2903 73.4706 14.3682C73.648 14.446 73.8846 14.5044 74.2001 14.5239L73.6677 16.7239Z" fill="black"/>
<path d="M78.6962 4.22479H85.6568L85.4202 5.27612H79.6624L78.6174 9.55931H83.7638L83.5272 10.5912H78.4004L77.1582 15.4974H83.3498L83.1329 16.5487H75.7188L78.6962 4.22479Z" fill="black"/>
<path d="M86.071 7.67081C86.5442 7.53452 87.0372 7.41771 87.5696 7.32036C88.102 7.22302 88.6146 7.16461 89.1273 7.16461C89.5611 7.16461 89.9752 7.20355 90.3498 7.3009C90.7245 7.39824 91.0794 7.55399 91.3555 7.76815C91.6512 8.00178 91.8681 8.29382 92.0456 8.66373C92.2231 9.03364 92.3019 9.48143 92.3019 10.0266C92.3019 10.3381 92.2822 10.6496 92.2231 10.9805C92.1836 11.3115 92.1048 11.6425 92.0259 11.9735L90.9217 16.5487H89.7583L90.7442 12.4602C90.8428 12.0708 90.9217 11.6814 91.0005 11.2726C91.0794 10.8637 91.1189 10.4743 91.1386 10.1239C91.1386 9.75399 91.0794 9.46196 90.9611 9.20886C90.8428 8.97523 90.685 8.78054 90.4879 8.64426C90.2907 8.50798 90.0541 8.41063 89.7977 8.33275C89.5414 8.27435 89.2653 8.23541 88.9696 8.23541C88.6541 8.23541 88.3386 8.25488 88.0231 8.31328C87.7076 8.35222 87.3724 8.41063 87.0766 8.48851L85.1048 16.5487H83.9414L86.071 7.67081Z" fill="black"/>
<path d="M94.8053 16.5487C94.5096 15.2248 94.2335 13.7841 93.9969 12.2071C93.7603 10.6301 93.6223 9.01418 93.6025 7.35931H94.7659C94.7856 8.00179 94.8054 8.68321 94.8645 9.38409C94.9039 10.1044 94.9828 10.8053 95.0617 11.5257C95.1406 12.246 95.2392 12.9275 95.3575 13.5894C95.4758 14.2514 95.5941 14.8549 95.7321 15.3611C96.087 14.8938 96.4814 14.3292 96.9152 13.6673C97.349 13.0053 97.7631 12.3239 98.1772 11.5841C98.5913 10.8637 98.9659 10.1239 99.3011 9.40356C99.6363 8.68321 99.9124 8.00179 100.129 7.35931H101.273C101.036 8.09914 100.721 8.89737 100.326 9.71507C99.9321 10.5328 99.518 11.3505 99.0448 12.1487C98.5715 12.9469 98.0786 13.7452 97.5462 14.5044C97.0138 15.2637 96.4814 15.9452 95.9687 16.5682H94.8053V16.5487Z" fill="black"/>
<path d="M99.2025 18.6124C99.518 18.7876 99.8927 18.885 100.307 18.885C100.918 18.885 101.529 18.7098 102.121 18.3788C102.712 18.0478 103.265 17.5416 103.757 16.8602C103.245 15.2832 102.85 13.6867 102.555 12.0513C102.259 10.4354 102.101 8.85843 102.042 7.33984H103.265C103.284 7.90445 103.324 8.52745 103.383 9.20887C103.442 9.89029 103.521 10.5912 103.619 11.331C103.738 12.0708 103.856 12.8106 104.014 13.5894C104.172 14.3487 104.369 15.108 104.586 15.8283C105.118 14.9912 105.611 14.1345 106.045 13.2779C106.479 12.4213 106.853 11.6036 107.169 10.8443C107.484 10.085 107.76 9.40356 107.977 8.78055C108.194 8.17701 108.332 7.69029 108.431 7.33984H109.574C109.496 7.59294 109.377 8.02126 109.18 8.60533C108.983 9.20887 108.726 9.90976 108.411 10.6885C108.096 11.4867 107.701 12.3434 107.228 13.2584C106.774 14.1735 106.242 15.069 105.631 15.9452C104.704 17.308 103.817 18.3009 102.949 18.9239C102.081 19.5469 101.174 19.8584 100.248 19.8584C100.031 19.8584 99.7941 19.839 99.5378 19.8C99.2814 19.7611 99.0251 19.6832 98.749 19.5275L99.2025 18.6124Z" fill="black"/>
<path d="M18.5553 18.9434C18.3187 16.6266 17.8061 14.5628 17.1356 12.7133C16.7215 13.2 16.2483 13.6673 15.7159 14.1151C17.0173 16.0425 17.668 17.8726 17.9835 19.3912L18.5553 18.9434ZM10.5497 2.68674L6.13281 6.11329C6.44831 6.28851 6.7638 6.4832 7.09901 6.65842C9.95816 8.19647 12.0877 9.87081 13.6849 11.5257C14.5525 10.7859 15.1835 10.0071 15.6173 9.2478C13.9807 6.21063 12.0089 4.0301 10.5497 2.68674Z" fill="#35AADB"/>
<path d="M5.99455 11.4283C5.89596 12.3044 6.05371 13.0832 6.52695 13.6867C7.90723 15.3611 11.4171 14.8549 14.2171 12.577C17.0171 10.2991 18.2002 6.96993 16.8396 5.29559C16.1495 4.43895 14.8875 4.16639 13.4481 4.38055C13.2115 4.08851 12.9551 3.81594 12.7185 3.54338C14.6509 3.13453 16.4058 3.52391 17.4509 4.7894C19.2255 6.95046 18.0622 10.6885 14.8284 13.3168C11.6143 15.9646 7.69033 16.3345 5.91568 14.1929C5.24526 13.3752 4.98892 12.3239 5.12695 11.1947C5.42272 11.2531 5.7185 11.3505 5.99455 11.4283Z" fill="#F9A61A"/>
<path d="M5.3236 7.86548C5.00811 7.7292 4.71234 7.59292 4.41656 7.45663L1.99121 9.34513C2.6222 9.52035 3.2729 9.69557 3.96304 9.83186C7.13769 10.5327 9.60248 11.6425 11.5152 12.9274C11.8504 12.7717 12.1659 12.5965 12.5011 12.3823C10.7461 10.7858 8.41938 9.20885 5.3236 7.86548ZM14.7095 14.8549C14.5321 14.9717 14.3546 15.0885 14.1771 15.1858C15.0842 16.1398 15.794 17.1133 16.3264 18.0478L16.4842 17.8726C16.0701 16.9186 15.4983 15.9062 14.7095 14.8549Z" fill="black"/>
</svg>
