<svg width="78" height="20" viewBox="0 0 78 20" fill="none" xmlns="http://www.w3.org/2000/svg">
<g clip-path="url(#clip0)">
<path d="M34.981 9.30048C36.7184 9.30048 37.8055 10.6314 37.8055 12.5701C37.8055 14.5088 36.6091 15.8396 34.981 15.8396C34.1903 15.8396 33.6233 15.4938 33.3788 15.2423C33.332 15.1952 33.2696 15.2161 33.2696 15.279V18.1137C33.2696 18.1504 33.2436 18.1766 33.2072 18.1766H31.8495C31.8131 18.1766 31.7871 18.1504 31.7871 18.1137V9.48911C31.7871 9.45243 31.8131 9.42623 31.8495 9.42623H32.765C32.8379 9.42623 32.9159 9.43671 32.9419 9.48911L33.2384 9.91352C33.28 9.97116 33.3528 9.95544 33.4049 9.88732C33.6961 9.58866 34.3516 9.30048 34.981 9.30048ZM34.7313 10.668C33.743 10.668 33.2644 11.4488 33.2644 12.5701C33.2644 13.8119 33.743 14.4721 34.7313 14.4721C35.782 14.4721 36.323 13.6914 36.323 12.5701C36.323 11.4488 35.782 10.668 34.7313 10.668Z" fill="black"/>
<path d="M75.6269 16.6151C75.0807 18.1137 74.9767 18.1818 73.6294 18.1818H71.814C71.7776 18.1818 71.7516 18.1556 71.7516 18.1189V16.9505C71.7516 16.9138 71.762 16.8876 71.814 16.8876H73.3173C74.108 16.8876 74.1028 16.6099 73.7959 15.6563L71.736 9.49436C71.7256 9.45769 71.7464 9.43149 71.7984 9.43149H73.2393C73.2757 9.43149 73.3017 9.45769 73.3121 9.49436L74.805 14.3044C74.8154 14.3673 74.9143 14.3673 74.9299 14.3044L76.4228 9.49436C76.4332 9.45769 76.4592 9.43149 76.4956 9.43149H77.9261C77.9729 9.43149 77.9989 9.45769 77.9885 9.49436L75.6269 16.6151Z" fill="black"/>
<path d="M27.0328 15.8501C24.4267 15.8501 23.1211 13.9848 23.1211 11.3492C23.1211 8.71364 24.4319 6.8483 27.0328 6.8483C29.6389 6.8483 30.9445 8.71364 30.9445 11.3492C30.9445 13.9848 29.6389 15.8501 27.0328 15.8501ZM29.4048 11.3492C29.4048 9.3948 28.5673 8.21586 27.0328 8.21586C25.5035 8.21586 24.6608 9.3948 24.6608 11.3492C24.6608 13.3036 25.4983 14.4826 27.0328 14.4826C28.5673 14.4826 29.4048 13.3036 29.4048 11.3492Z" fill="black"/>
<path d="M38.0087 10.7414C37.9723 10.7414 37.9463 10.7152 37.9463 10.6785V9.49959C37.9463 9.46291 37.9723 9.43671 38.0087 9.43671H39.023C39.0595 9.43671 39.0855 9.41051 39.0855 9.37383V7.69712C39.0855 7.66045 39.1115 7.63425 39.1479 7.63425H40.5055C40.542 7.63425 40.568 7.66045 40.568 7.69712V9.37383C40.568 9.41051 40.594 9.43671 40.6304 9.43671H41.8892C41.9256 9.43671 41.9516 9.46291 41.9516 9.49959V10.6785C41.9516 10.7152 41.9256 10.7414 41.8892 10.7414H40.6252C40.5888 10.7414 40.5628 10.7676 40.5628 10.8043V13.9638C40.5628 14.2101 40.7604 14.362 41.0049 14.362H41.8788C41.9152 14.362 41.9412 14.3882 41.9412 14.4249V15.6667C41.9412 15.7034 41.9152 15.7296 41.8788 15.7296H40.9165C39.6212 15.7296 39.0751 15.2214 39.0751 13.9743V10.8043C39.0751 10.7676 39.0491 10.7414 39.0126 10.7414H38.0087Z" fill="black"/>
<path d="M42.9192 8.46738C42.888 8.46738 42.8672 8.44642 42.8672 8.41498V7.02646C42.8672 6.99502 42.888 6.97406 42.9192 6.97406H44.2769C44.3081 6.97406 44.3289 6.99502 44.3289 7.02646V8.41498C44.3289 8.44642 44.3081 8.46738 44.2769 8.46738H42.9192Z" fill="black"/>
<path d="M42.9189 15.7244C42.8825 15.7244 42.8564 15.6982 42.8564 15.6615V9.49436C42.8564 9.45769 42.8825 9.43149 42.9189 9.43149H44.2765C44.3129 9.43149 44.3389 9.45769 44.3389 9.49436V15.6615C44.3389 15.6982 44.3129 15.7244 44.2765 15.7244H42.9189V15.7244Z" fill="black"/>
<path d="M52.7398 15.7244C52.7034 15.7244 52.6774 15.6982 52.6774 15.6615V12.219C52.6774 11.475 52.4069 10.6785 51.5538 10.6785C50.7164 10.6785 50.4407 11.3492 50.4407 12.219V15.6615C50.4407 15.6982 50.4147 15.7244 50.3783 15.7244H49.0206C48.9842 15.7244 48.9582 15.6982 48.9582 15.6615V12.219C48.9582 11.475 48.6877 10.6785 47.8346 10.6785C46.9971 10.6785 46.7214 11.3492 46.7214 12.219V15.6615C46.7214 15.6982 46.6954 15.7244 46.659 15.7244H45.3066C45.2701 15.7244 45.2441 15.6982 45.2441 15.6615V9.49435C45.2441 9.45768 45.2701 9.43148 45.3066 9.43148H46.477C46.5498 9.43148 46.5758 9.45768 46.6018 9.50483L46.7266 9.87685C46.7526 9.92401 46.7995 9.93973 46.8359 9.90305C47.096 9.64107 47.7618 9.30573 48.3288 9.30573C49.057 9.30573 49.6136 9.60439 49.9361 10.0393C49.9621 10.076 50.0089 10.076 50.0349 10.0393C50.3783 9.66727 50.888 9.30573 51.6787 9.30573C53.234 9.30573 54.1599 10.2017 54.1599 12.1404V15.6615C54.1599 15.6982 54.1339 15.7244 54.0975 15.7244H52.7398V15.7244Z" fill="black"/>
<path d="M55.1331 8.46738C55.1019 8.46738 55.0811 8.44642 55.0811 8.41498V7.02646C55.0811 6.99502 55.1019 6.97406 55.1331 6.97406H56.4907C56.5219 6.97406 56.5427 6.99502 56.5427 7.02646V8.41498C56.5427 8.44642 56.5219 8.46738 56.4907 8.46738H55.1331Z" fill="black"/>
<path d="M55.1269 15.7244C55.0905 15.7244 55.0645 15.6982 55.0645 15.6615V9.49436C55.0645 9.45769 55.0905 9.43149 55.1269 9.43149H56.4845C56.5209 9.43149 56.5469 9.45769 56.5469 9.49436V15.6615C56.5469 15.6982 56.5209 15.7244 56.4845 15.7244H55.1269V15.7244Z" fill="black"/>
<path d="M57.5361 15.7244C57.4996 15.7244 57.4736 15.6982 57.4736 15.6615V14.4669C57.4736 14.4197 57.4996 14.3778 57.5204 14.3568L60.4958 10.8986C60.5218 10.8724 60.5218 10.7991 60.449 10.7991H57.6609C57.6245 10.7991 57.5985 10.7729 57.5985 10.7362V9.49436C57.5985 9.45769 57.6245 9.43149 57.6609 9.43149H62.3008C62.3372 9.43149 62.3633 9.45769 62.3633 9.49436V10.7257C62.3633 10.7624 62.3529 10.7729 62.3373 10.7886L59.3723 14.2573C59.3463 14.2835 59.3463 14.3568 59.4191 14.3568H62.4413C62.4777 14.3568 62.5037 14.383 62.5037 14.4197V15.6615C62.5037 15.6982 62.4777 15.7244 62.4413 15.7244H57.5361V15.7244Z" fill="black"/>
<path d="M68.6725 13.1517H64.3759C64.3395 13.1517 64.3135 13.1779 64.3135 13.2146C64.3135 13.901 64.9065 14.4826 65.7804 14.4826C66.3213 14.4826 66.7687 14.3463 66.9768 13.9219C66.9872 13.8957 67.0132 13.859 67.0756 13.859H68.5217C68.5581 13.859 68.5945 13.8852 68.5841 13.9219C68.3136 15.1271 67.19 15.8501 65.7804 15.8501C63.9806 15.8501 62.7686 14.5193 62.7686 12.5806C62.7686 10.6261 63.9806 9.31097 65.7804 9.31097C67.5802 9.31097 68.7922 10.6419 68.7922 12.5806C68.7818 12.8268 68.7662 12.9421 68.7297 13.0888C68.7193 13.1255 68.7089 13.1517 68.6725 13.1517ZM67.164 11.9099C67.2004 11.9099 67.2108 11.8994 67.2108 11.8627C67.2108 11.3649 66.7895 10.6838 65.7804 10.6838C64.7816 10.6838 64.3135 11.3807 64.3135 11.8627C64.3135 11.8994 64.3239 11.9099 64.3603 11.9099H67.164Z" fill="black"/>
<path d="M69.5986 15.7244C69.5621 15.7244 69.5361 15.6982 69.5361 15.6615V7.03694C69.5361 7.00026 69.5621 6.97406 69.5986 6.97406H70.9562C70.9926 6.97406 71.0186 7.00026 71.0186 7.03694V15.6668C71.0186 15.7034 70.9926 15.7296 70.9562 15.7296H69.5986V15.7244Z" fill="black"/>
<path d="M7.33891 2.15876C6.3922 3.11239 5.76279 4.25464 5.44028 5.47026C6.03848 5.30783 6.65228 5.22399 7.26609 5.21875L5.1958 7.30416C5.1906 7.76526 5.22701 8.22635 5.31024 8.68221L8.63415 5.33403C9.06069 5.40738 9.47683 5.52266 9.88776 5.67461C10.0074 5.48598 10.1478 5.31307 10.3091 5.1454C11.5315 3.91406 13.5186 3.91406 14.7462 5.1454C15.9686 6.37673 15.9686 8.3783 14.7462 9.61488C14.5849 9.77731 14.4081 9.91878 14.2208 10.0393C14.3717 10.448 14.4861 10.8724 14.5589 11.3021L11.235 14.6502C11.6876 14.7341 12.1453 14.7708 12.6031 14.7655L14.6734 12.6801C14.6682 13.2984 14.5849 13.9167 14.4237 14.5192C15.6253 14.1944 16.7645 13.5604 17.7112 12.6068C20.5773 9.71967 20.5773 5.04584 17.7112 2.15876C14.845 -0.723086 10.1999 -0.723086 7.33891 2.15876Z" fill="#0037FF"/>
<path d="M9.68974 8.74508C9.51288 8.36782 9.41405 7.96436 9.38804 7.55566L7.50501 9.45244L6.06934 10.8986C6.23579 11.213 6.42826 11.5169 6.64673 11.8103L8.68581 9.75635L9.68974 8.74508Z" fill="#0037FF"/>
<path d="M12.3537 10.5371C11.948 10.5161 11.5474 10.4165 11.1729 10.2332L10.169 11.2444L8.12988 13.2984C8.42118 13.5185 8.72288 13.7123 9.03498 13.88L10.4707 12.4338L12.3537 10.5371Z" fill="#0037FF"/>
<path d="M9.39423 7.55567C9.35781 6.90594 9.52427 6.24574 9.88319 5.67985C9.47225 5.52789 9.05611 5.41262 8.62957 5.33926L5.30566 8.68745C5.37849 9.1171 5.49293 9.53628 5.64378 9.95022C5.76342 10.2751 5.90386 10.5947 6.07032 10.9038L9.39423 7.55567Z" fill="#080738"/>
<path d="M12.3539 10.5371L9.03516 13.8852C9.34206 14.0529 9.65936 14.1944 9.98187 14.3149C10.3876 14.4668 10.8089 14.5821 11.2355 14.6555L14.5594 11.3073C14.4814 10.8776 14.3721 10.4585 14.2213 10.0445C13.6543 10.4113 12.9989 10.5737 12.3539 10.5371Z" fill="#080738"/>
<path d="M14.4251 14.5193C14.5864 13.9167 14.6696 13.2984 14.6748 12.6801L12.6045 14.7655C13.2131 14.7655 13.8269 14.6817 14.4251 14.5193Z" fill="#080738"/>
<path d="M5.44109 5.47027C5.27984 6.07283 5.19661 6.69112 5.19141 7.30941L7.2617 5.224C6.64789 5.22924 6.03409 5.31307 5.44109 5.47027Z" fill="#080738"/>
<path d="M11.173 10.2384C10.8609 10.0865 10.5644 9.88211 10.3043 9.62012C10.0442 9.35813 9.84133 9.06471 9.69047 8.74509L6.64746 11.8103C6.85553 12.088 7.08441 12.3553 7.33409 12.612C7.58377 12.8635 7.84906 13.0941 8.12995 13.3036L11.173 10.2384Z" fill="#080738"/>
<path d="M5.4407 5.47025C4.23909 5.79511 3.09992 6.42911 2.1532 7.38274C0.738328 8.80795 0.0256898 10.6628 0.00488281 12.5281L5.19101 7.30415C5.19621 6.6911 5.27944 6.07281 5.4407 5.47025Z" fill="#0037FF"/>
<path d="M7.41211 19.9947C9.26393 19.9738 11.1105 19.2559 12.5254 17.8307C13.4721 16.8771 14.1015 15.7348 14.424 14.5192C13.8258 14.6817 13.212 14.7655 12.5982 14.7707L7.41211 19.9947Z" fill="#0037FF"/>
<path d="M5.11801 10.3746C5.27926 10.2122 5.45612 10.0707 5.64338 9.95021C5.49253 9.53627 5.37809 9.1171 5.30527 8.68744L0.119141 13.9114C0.254386 14.6764 0.509271 15.4257 0.883796 16.1226L4.2025 12.7797C4.16089 11.9151 4.46259 11.0348 5.11801 10.3746Z" fill="#0037FF"/>
<path d="M9.97628 14.3149C9.85664 14.5035 9.71619 14.6817 9.55494 14.8441C8.89952 15.5043 8.02563 15.8134 7.16734 15.7663L3.84863 19.1092C4.54046 19.4865 5.28431 19.7432 6.04376 19.8795L11.2299 14.6555C10.8086 14.5821 10.3872 14.4668 9.97628 14.3149Z" fill="#0037FF"/>
<path d="M5.11776 14.8441C4.85767 14.5821 4.6548 14.2887 4.50395 13.9691L1.46094 17.0343C1.66901 17.312 1.89788 17.5792 2.14757 17.836C2.39725 18.0875 2.66254 18.318 2.94343 18.5276L5.98644 15.4624C5.67434 15.3104 5.37784 15.1008 5.11776 14.8441Z" fill="#0037FF"/>
</g>
<defs>
<clipPath id="clip0">
<rect width="78" height="20" fill="white"/>
</clipPath>
</defs>
</svg>
