<svg width="47" height="16" viewBox="0 0 47 16" fill="none" xmlns="http://www.w3.org/2000/svg">
<path d="M39.2333 0C38.9448 0 38.5987 0 38.3102 0.0567772L36.6371 2.95241C37.3871 2.4982 38.3102 2.27109 39.2333 2.27109C42.2334 2.27109 44.7143 4.71251 44.7143 7.66492C44.7143 10.6173 42.2334 13.0588 39.2333 13.0588C36.2332 13.0588 33.81 10.6741 33.7523 7.7217L32.0215 10.6173C33.1754 13.3994 36.0024 15.3298 39.1756 15.3298C43.445 15.3298 46.9644 11.8664 46.9644 7.66492C47.0221 3.46341 43.5027 0 39.2333 0Z" fill="#BF3078"/>
<path d="M15.6934 8.00558L17.0203 5.7345L20.0205 10.7877L23.4822 4.93962L26.9438 10.7877L32.8864 0.851658C33.1749 0.340663 33.7518 0 34.3865 0H36.0596L26.9438 15.3298L23.4822 9.48179L20.0205 15.3298L15.6934 8.00558Z" fill="#802050"/>
<path d="M18.1738 0L9.05807 15.3298L0 0H1.67315C2.30779 0 2.88473 0.340663 3.17321 0.851658L9.05807 10.8444L15.0006 0.851658C15.2891 0.340663 15.866 0 16.5007 0H18.1738Z" fill="#26134D"/>
</svg>
